<svg width="11" height="17" viewBox="0 0 11 17" fill="none" xmlns="http://www.w3.org/2000/svg">
<path d="M5.5 0C2.4673 0 0 2.60071 0 5.7974C0 6.87745 0.283831 7.93148 0.820997 8.84592L5.18693 16.262C5.27056 16.4041 5.4179 16.4904 5.57636 16.4904C5.57758 16.4904 5.57877 16.4904 5.57999 16.4904C5.73983 16.489 5.88748 16.4001 5.96958 16.2555L10.2242 8.76759C10.7318 7.87248 11 6.8454 11 5.7974C11 2.60071 8.5327 0 5.5 0ZM9.43757 8.27153L5.56942 15.0792L1.6001 8.33685C1.15298 7.57571 0.910556 6.6976 0.910556 5.7974C0.910556 3.13349 2.97275 0.959791 5.5 0.959791C8.02725 0.959791 10.0864 3.13349 10.0864 5.7974C10.0864 6.6709 9.85994 7.52657 9.43757 8.27153Z" fill="white"/>
</svg>
